# xmcd
#
# Track frame offsets:
#	150
#	17399
#	26985
#	36593
#	53150
#	72997
#	93316
#	104963
#	121017
#	136251
#
# Disc length: 1956 seconds
#
# Revision: 0
# Processed by: cddbd v1.5.1PL0 Copyright (c) Steve Scherf et al.
# Submitted via: dBpowerAMP V4.0
#
DISCID=8a07a20a
DTITLE=Glen Campbell - Pure Platinum Disc 1
DYEAR=1900
DGENRE=
TTITLE0=Southern Nights
TTITLE1=Gentle On my Minds
TTITLE2=Dreams Of The Everyday Housewife
TTITLE3=Please Come To Boston
TTITLE4=Medley: Wichita Linesman/Galveston/Countryboy
TTITLE5=Amazing Grace
TTITLE6=It's Only Make Believe
TTITLE7=I'm So Lonesome I Could Cry
TTITLE8=Rollin' (In My Sweet Baby's Arms)
TTITLE9=Try A Little Tenderness
EXTD=
EXTT0=
EXTT1=
EXTT2=
EXTT3=
EXTT4=
EXTT5=
EXTT6=
EXTT7=
EXTT8=
EXTT9=
PLAYORDER=
